# xmcd CD database file
#
# Track frame offsets:
#	150
#	16607
#	34170
#	52782
#	64892
#	80375
#	91732
#	107540
#	124305
#	140570
#	162010
#	178512
#	193562
#	210295
#	227260
#	243407
#	258670
#	273655
#	292040
#	305627
#
# Disc length: 4426 seconds
#
# Revision: 2
# Processed by: cddbd v1.5.2PL0 Copyright (c) Steve Scherf et al.
# Submitted via: CDex 1.51
#
DISCID=0b114814
DTITLE=ペドロ＆カプリシャス - ヒット・コレクション
DYEAR=1999
DGENRE=JPop
TTITLE0=ジョニィへの伝言
TTITLE1=五番街のマリーへ
TTITLE2=別れの朝
TTITLE3=陽かげりの街
TTITLE4=さよならの紅いバラ
TTITLE5=夢をみさせて(I Want To See You Dancing)
TTITLE6=わたしのスーパースター
TTITLE7=ミスター・マジシャン
TTITLE8=レンガ通りの酒場で
TTITLE9=ぜんまいじかけ
TTITLE10=灰色の空の下で
TTITLE11=愛をつくろうメキシコで
TTITLE12=三年目の浮気
TTITLE13=やっぱり別れます
TTITLE14=それと涙
TTITLE15=物語ならハッピーエンドで(On A Mountain Side)
TTITLE16=カリブの夢
TTITLE17=恋人たちの時間
TTITLE18=占いカードは78枚
TTITLE19=ブラック・マジック・ウーマン（ライヴ）
EXTD=YEAR: 1999
EXTT0=
EXTT1=
EXTT2=
EXTT3=
EXTT4=
EXTT5=
EXTT6=
EXTT7=
EXTT8=
EXTT9=
EXTT10=
EXTT11=
EXTT12=
EXTT13=
EXTT14=
EXTT15=
EXTT16=
EXTT17=
EXTT18=
EXTT19=
PLAYORDER=
